# xmcd
#
# Track frame offsets:
#	150
#	16357
#	31845
#	46652
#	63167
#	79252
#	101307
#	126015
#	140382
#	152570
#	168330
#	188505
#	200785
#	218705
#	233755
#	249047
#	264762
#
# Disc length: 3741 seconds
#
# Revision: 1
# Processed by: cddbd v1.5.2PL0 Copyright (c) Steve Scherf et al.
# Submitted via: audiograbber 1.83.01
#
DISCID=ca0e9b11
DTITLE=SHIRLEY BASSEY  - THIS IS MY LIFE [CD3)
DYEAR=1900
DGENRE=
TTITLE0=SOMETHING
TTITLE1=THE FOOL ON THE HILL
TTITLE2=WHERE DO I BEGIN?
TTITLE3=NEVER, NEVER, NEVER
TTITLE4=MAKE THE WORLD A LITTLE YOUNGER
TTITLE5=NATALIE
TTITLE6=THE BALLAD OF THE SAD YOUNG MEN
TTITLE7=MOONRAKER
TTITLE8=DIAMONDS ARE FOREVER
TTITLE9=THE GREATEST PERFORMANCE OF MY LIFE?
TTITLE10=AND I LOVE YOU
TTITLE11=FOR ALL WE KNOW
TTITLE12=CAN'T TAKE MY EYES OFF YOU
TTITLE13=YOU TAKE MY HEART AWAY
TTITLE14=GOOD BAD BUT BEAUTIFUL
TTITLE15=WHEN YOU SMILE
TTITLE16=LIVING
EXTD=
EXTT0=
EXTT1=
EXTT2=
EXTT3=
EXTT4=
EXTT5=
EXTT6=
EXTT7=
EXTT8=
EXTT9=
EXTT10=
EXTT11=
EXTT12=
EXTT13=
EXTT14=
EXTT15=
EXTT16=
PLAYORDER=
